<svg xmlns="http://www.w3.org/2000/svg" viewBox="0 0 1280 768" xml:space="preserve"><path d="M935 769H1.057V1.104h1279.761V769zm-317.783-50.503-5.236-.485c1.493 2.726 1.155 7.525 6.807 5.108.167-.071.508.267.768.414l-.365.49c.057-.281.123-.561.169-.844.17-1.063.335-2.127.935-3.878v-23.023c-3.892 3.626-4.294 11.942-2.136 15.926.837 1.546-.164 4.087-.942 6.292m-27.393-8.625.494 15.89q1.134.01 2.27.018c1.102-5.587.528-11.305.105-17.872V699.4l9.098 9.068 1.708-1.83-12.257-13.335-1.187.948c0 4.9 0 9.801-.23 15.62M404.975 596.76l-31.868-33.863c0 6.9-.063 12.815.058 18.726.021 1.067.543 2.353 1.268 3.138 6.634 7.19 13.363 14.29 20.405 22.022 11.688 12.534 23.345 25.098 35.11 37.56 1.272 1.346 3.12 2.877 4.789 2.988 5.606.373 11.252.142 17.005.142v-93.95h-15.01v76.929c-11.004-11.567-21.254-22.342-31.757-33.692m60.333-482.26c-.008 6.332-.322 12.685.126 18.984.178 2.503 1.444 5.51 3.232 7.232 34.329 33.036 68.834 65.889 103.251 98.834 31.169 29.835 62.265 59.746 93.41 89.606 46.9 44.963 93.829 89.894 140.686 134.901 3.417 3.282 6.353 7.064 9.512 10.614l1.553-1.07v-5.765c-.002-27.162-.077-54.325.078-81.486.022-3.833-1.15-6.442-3.91-9.061-25.857-24.54-51.6-49.2-77.35-73.852q-66.244-63.421-132.459-126.874c-44.745-42.877-89.474-85.771-134.218-128.65-1.076-1.032-2.243-1.969-3.909-3.423 0 23.725 0 46.367-.002 70.01m68.334 285c.005-55.666-.034-111.332.103-166.998.01-4.02-1.171-6.782-4.047-9.533-17.943-17.16-35.716-34.498-53.56-51.761-3.275-3.168-6.623-6.26-10.36-9.787v310.237h67.864zm215.392-156v31.577h67.84V46.35h-67.84zM702.42 636.1c4.186 2.298 8.15 5.24 12.6 6.78 17.267 5.982 34.89 6.279 52.358 1.115 18.682-5.522 28.468-15.815 27.506-36.358-.678-14.464-.13-28.985-.138-43.48-.005-10.915-.015-10.741-11.01-10.997-3.868-.09-4.768 1.19-4.731 4.838.178 17.493.116 34.989.104 52.483-.006 10.263-3.85 15.855-13.53 19.559-12.03 4.602-24.581 4.482-36.85 2.261-19.467-3.525-23.204-11.8-22.69-28.335.517-16.63.114-33.289.114-50.64-3.17 0-5.983.246-8.738-.054-5.152-.56-6.534 1.67-6.468 6.6.244 17.992.13 35.989.09 53.983-.021 9.1 3.48 16.402 11.383 22.245m-183.922-68.805h29.213v-13.689h-81.633v67.195h15.084v-15.194h66.596v-13.95h-66.491v-24.362zm406.68 62.788 5.125-3.09 3.098 4.534c5.182-9.535 5.411-52.642.89-74.956-3.414 0-7.043.627-10.35-.14-5.651-1.31-9.472 1.453-12.552 5.092-6.865 8.11-13.249 16.627-19.857 24.956-6.239 7.865-12.513 15.702-18.916 23.733l-36.686-46.066c0 4.91.31 8.587-.069 12.19-.665 6.318 1.181 11.294 5.356 16.26 10.677 12.7 20.746 25.913 31.269 39.188l49.298-61.759c0 18.19.068 34.673-.058 51.153-.025 3.304.41 6.13 3.452 8.905m-323.546-58.216c-5.025-5.097-10.008-10.237-15.106-15.26-1.26-1.24-2.848-2.907-4.365-2.994-5.989-.346-12.01-.142-18.018-.142l-.71 1.196 46.057 45.295-46.758 47.493c5.077 0 10.497.213 15.884-.114 1.927-.116 4.23-1.077 5.592-2.427 29.801-29.531 59.497-59.169 89.189-88.81.692-.691 1.112-1.656 1.886-2.842-4.824 0-8.987.257-13.104-.07-4.362-.346-7.43 1.164-10.496 4.3-10.58 10.819-21.481 21.322-32.25 31.934-5.706-5.633-11.498-11.35-17.8-17.56m153.182-279.734h-6.092l68.108 64.95v-64.946c-20.543 0-40.813 0-62.016-.004M345.136 577.5v69.69h15.621v-93.536h-15.62zm478.544 33c-.004-14.641-.005-29.283-.012-43.925-.006-14.608-.009-14.609-14.88-13.157-.137.014-.258.2-.491.39v93.354h15.383zM505.5 647.442h42.155v-14.018h-81.724v14.018zm125.108-26.59c8.06 7.91 16.089 15.85 24.21 23.694 1.254 1.212 2.884 2.747 4.415 2.835 5.824.333 11.677.134 16.894.134L637.99 608.42c-2.58 2.922-5.114 5.576-7.351 8.46-.626.808-.379 2.293-.032 3.973m-183.251 73.373c-1.13 2.078-3.091 4.1-3.235 6.245-.432 6.445-.25 12.94-.12 19.411.076 3.865 2.072 6.209 6.155 6.243 5.974.05 11.95.093 17.922.027 3.972-.044 6.117-2.103 6.125-6.165.013-6.64.031-13.28.004-19.92-.019-4.336-2.39-6.236-6.582-6.198-6.473.059-12.945.094-20.27.357m290.747 22.03c0-4.828.098-9.658-.033-14.482-.099-3.647 1.519-5.066 5.095-4.987 6.157.137 12.32.125 18.476-.001 1.375-.028 2.735-.79 4.103-1.213l-.371-1.683c-7.75 0-15.499.046-23.247-.017-4.63-.038-6.682 2.473-6.766 6.764-.12 6.156-.11 12.318-.007 18.475.08 4.878 2.116 6.959 6.983 7.057 6.988.142 13.98.12 20.97.067.805-.006 1.606-.645 2.409-.99-1.377-1.47-2.77-2.03-4.17-2.053-5.825-.09-11.66-.206-17.475.054-4.515.202-6.624-1.423-5.967-6.991M374.02 717.27c0-4.823.26-9.664-.078-14.462-.32-4.536 1.18-6.35 5.87-6.088 5.803.323 11.638.163 17.455.031 1.348-.03 2.68-.794 4.018-1.22l-.378-1.578c-8.28 0-16.572-.258-24.835.118-3.667.167-5.106 3.201-5.095 6.775.017 6.153-.006 12.305.016 18.458.015 4.412 2.221 6.807 6.67 6.855 7.15.078 14.3.079 21.45.042.681-.003 1.36-.5 2.04-.768-1.209-1.544-2.537-2.205-3.876-2.226-6.15-.1-12.307-.125-18.456.034-3.655.095-5.292-1.353-4.801-5.971m511.08 5.91-3.919 1.27.264 1.403c8.026 0 16.123.652 24.053-.222 5.585-.615 7.686-9.25 4.005-13.712-3.011-3.652-7.029-4.295-10.725-1.355 1.644.436 3.315.427 4.323 1.241 2.102 1.696 5.211 3.687 5.43 5.812.325 3.161-2.178 5.648-6.114 5.58-5.474-.095-10.95-.014-17.316-.017m-59.985-.462v-25.617c11.929-.707 11.929-.707 13.618-2.533h-30.581l-.102 1.802 14.888.7v28.815l1.428.334c.334-.891.667-1.783.75-3.501m67.39-13.779c-.643-.158-1.279-.404-1.931-.46-3.995-.348-6.866-2.04-6.416-6.482.45-4.44 3.732-5.287 7.611-5.2 5.322.118 10.65.114 15.97-.023 1.343-.035 2.667-.776 4-1.193l-.237-1.68H889.85c-4.756 0-7.376 2.853-8.447 7.014-1.105 4.288 1.199 7.716 4.738 9.49 1.795.9 5.203 3.458 6.367-1.466m-348.317 9.708c-1.091-.378-2.427-.48-3.225-1.19-2.03-1.803-3.82-3.878-5.705-5.844l-1.752 1.718 12.16 13.314 1.072-.843V693.93c-.844.1-1.753.14-1.756.217-.309 7.88-.549 15.764-.794 24.501m-27.211-3.176v10.383l1.689.432c.43-1.267 1.21-2.529 1.23-3.802.119-7.39.058-14.78.058-22.172l2.107-1.538 6.886 9.665 1.56-1.542-12.036-13.586-1.495.886zm175.392 10.482c-.914-.934-1.807-2.654-2.745-2.679-7.937-.213-15.884-.173-23.825-.046-1.067.017-2.118.946-3.177 1.452l.385 1.492c9.51 0 19.022 0 29.362-.22m-23.758-32.07h-6.097c2.403 3.879 27.337 4.05 31.423-.01-8.723 0-16.538 0-25.326.01m-1.997 14.72-3.867 1.046.307.985h29.865l.007-2.006c-8.446 0-16.892 0-26.312-.025"/><path fill="#FEFEFE" d="m465.31 114 .001-69.51c1.666 1.454 2.833 2.391 3.909 3.423 44.744 42.879 89.473 85.773 134.218 128.65q66.215 63.452 132.459 126.874c25.75 24.652 51.493 49.313 77.35 73.852 2.76 2.62 3.932 5.228 3.91 9.06-.155 27.162-.08 54.325-.078 81.487v5.765l-1.553 1.07c-3.16-3.55-6.095-7.332-9.512-10.614-46.857-45.007-93.787-89.938-140.686-134.901-31.145-29.86-62.241-59.77-93.41-89.606-34.417-32.945-68.922-65.798-103.251-98.834-1.788-1.721-3.054-4.729-3.232-7.232-.448-6.299-.134-12.652-.125-19.484"/><path fill="#FCFCFC" d="M533.643 400v71.658h-67.865V161.421c3.738 3.527 7.086 6.62 10.36 9.787 17.845 17.263 35.618 34.6 53.56 51.761 2.877 2.751 4.057 5.512 4.048 9.533-.137 55.666-.098 111.332-.103 167.498"/><path fill="#FFF" d="M749.035 243V46.35h67.84v228.727h-67.84z"/><path fill="#FAFAF9" d="M702.114 635.912c-7.596-5.655-11.097-12.958-11.077-22.057.04-17.994.155-35.991-.089-53.983-.066-4.93 1.316-7.16 6.468-6.6 2.755.3 5.568.053 8.738.053 0 17.352.403 34.01-.114 50.64-.514 16.536 3.223 24.811 22.69 28.336 12.269 2.221 24.82 2.341 36.85-2.261 9.68-3.704 13.524-9.296 13.53-19.559.012-17.494.074-34.99-.104-52.483-.037-3.647.863-4.928 4.73-4.838 10.996.256 11.006.082 11.011 10.996.007 14.496-.54 29.017.138 43.481.962 20.543-8.824 30.836-27.506 36.358-17.468 5.164-35.091 4.867-52.359-1.114-4.449-1.542-8.413-4.483-12.906-6.969"/><path fill="#FBFBFB" d="M518 567.295h-36.732v24.362h66.49v13.95h-66.595v15.194H466.08v-67.195h81.633v13.69z"/><path fill="#FCFCFB" d="M925.08 629.704c-2.943-2.396-3.378-5.222-3.353-8.526.126-16.48.058-32.963.058-51.153l-49.298 61.759c-10.523-13.275-20.592-26.488-31.27-39.189-4.174-4.965-6.02-9.94-5.355-16.259.38-3.603.07-7.28.07-12.19 12.528 15.733 24.423 30.67 36.685 46.066 6.403-8.03 12.677-15.868 18.916-23.733 6.608-8.33 12.992-16.846 19.857-24.956 3.08-3.639 6.9-6.402 12.553-5.091 3.306.766 6.935.14 10.35.14 4.52 22.313 4.29 65.42-.891 74.955l-3.098-4.535c-1.957 1.18-3.541 2.136-5.223 2.712"/><path fill="#FAFAF9" d="M601.888 572.112c6.048 5.963 11.84 11.681 17.547 17.314 10.768-10.612 21.67-21.115 32.249-31.934 3.066-3.136 6.134-4.646 10.496-4.3 4.117.327 8.28.07 13.104.07-.774 1.186-1.194 2.15-1.886 2.842-29.692 29.641-59.388 59.279-89.189 88.81-1.362 1.35-3.665 2.31-5.592 2.427-5.387.327-10.807.114-15.884.114l46.758-47.493-46.057-45.295.71-1.196c6.009 0 12.03-.204 18.018.142 1.517.087 3.105 1.754 4.365 2.995 5.098 5.022 10.08 10.162 15.361 15.504"/><path fill="#FCFCFC" d="M755.282 292.134c20.737.002 41.007.002 61.55.002v64.947l-68.108-64.95z"/><path fill="#FDFDFD" d="m405.229 597.334 31.503 33.118v-76.928h15.011v93.949c-5.753 0-11.399.23-17.005-.142-1.67-.111-3.517-1.642-4.789-2.989-11.765-12.461-23.422-25.025-34.85-37.906 1.94.147 3.605.974 5.302 1.045 1.801.075 3.918-.137 5.332-1.075.732-.486.37-2.825.266-4.31-.112-1.597-.502-3.175-.77-4.762"/><path fill="#FAFAF9" d="M345.137 577v-23.346h15.62v93.537h-15.62z"/><path fill="#F8F8F8" d="M823.68 611v36.162h-15.382v-93.354c.233-.19.354-.376.492-.39 14.87-1.452 14.873-1.451 14.88 13.157.006 14.642.007 29.284.01 44.425"/><path fill="#F9F9F8" d="M505 647.442h-39.07v-14.018h81.724v14.018zM630.358 620.6c-.097-1.427-.344-2.912.282-3.72 2.237-2.884 4.77-5.538 7.351-8.46l38.136 39.095c-5.217 0-11.07.199-16.894-.134-1.53-.088-3.161-1.623-4.415-2.835-8.121-7.845-16.15-15.785-24.46-23.946"/><path fill="#ECECEC" d="M405.102 597.047c.395 1.874.785 3.452.897 5.05.104 1.484.466 3.823-.266 4.309-1.414.938-3.53 1.15-5.332 1.075-1.697-.07-3.362-.898-5.472-1.348-7.132-7.081-13.861-14.182-20.495-21.372-.725-.785-1.247-2.071-1.268-3.138-.121-5.911-.058-11.827-.058-18.726 11.062 11.755 21.465 22.809 31.994 34.15m-23.438-9.22c.897.933 1.837 1.83 2.683 2.808 4.256 4.92 7.598 11.031 16.119 11.516-.225-1.982.236-4.433-.779-5.727a216 216 0 0 0-13.574-15.685c-2.735-2.868-6.098-5.136-9.349-7.815-2.42 6.559 1.058 10.49 4.9 14.902"/><path fill="#E7E7E7" d="M447.783 694.117c6.898-.154 13.37-.19 19.843-.248 4.191-.038 6.563 1.862 6.582 6.199.027 6.64.009 13.28-.004 19.919-.008 4.062-2.153 6.12-6.125 6.165-5.973.066-11.948.023-17.922-.027-4.083-.034-6.079-2.378-6.156-6.243-.129-6.471-.311-12.966.12-19.41.145-2.145 2.106-4.168 3.662-6.355m-.795 11.481c0 4.331.173 8.671-.056 12.99-.188 3.565 1.325 4.734 4.694 4.638 5.16-.148 10.329-.136 15.489 0 3 .078 4.256-1.2 4.232-4.116-.052-6.158-.059-12.317-.03-18.476.013-2.701-1.172-3.909-3.932-3.839-4.161.105-8.328.033-12.492.011-7.905-.041-7.905-.049-7.905 8.792"/><path fill="#E2E2E2" d="M738.103 716.725c-.657 5.1 1.452 6.724 5.967 6.522 5.815-.26 11.65-.144 17.475-.054 1.4.022 2.793.584 4.17 2.052-.803.346-1.604.985-2.41.991-6.989.052-13.981.075-20.969-.067-4.867-.098-6.902-2.179-6.983-7.057a513 513 0 0 1 .007-18.475c.084-4.29 2.137-6.802 6.766-6.764 7.748.063 15.498.017 23.247.017l.37 1.683c-1.367.424-2.727 1.185-4.102 1.213-6.157.126-12.32.138-18.476.001-3.576-.08-5.194 1.34-5.095 4.987.13 4.824.032 9.654.033 14.95"/><path fill="#ECECEC" d="M374.02 717.742c-.49 4.147 1.146 5.595 4.801 5.5 6.149-.159 12.305-.134 18.456-.034 1.339.021 2.667.682 3.876 2.226-.68.268-1.359.765-2.04.768-7.15.037-14.3.036-21.45-.042-4.449-.048-6.655-2.443-6.67-6.855-.022-6.153.001-12.305-.016-18.458-.01-3.574 1.428-6.608 5.095-6.775 8.263-.376 16.555-.118 24.835-.118l.378 1.579c-1.339.425-2.67 1.188-4.018 1.219-5.817.132-11.652.292-17.455-.031-4.69-.262-6.19 1.552-5.87 6.088.339 4.798.077 9.64.078 14.933"/><path fill="#E7E7E7" d="M885.546 723.185c5.92-.001 11.397-.082 16.87.013 3.937.068 6.44-2.419 6.115-5.58-.219-2.125-3.328-4.116-5.43-5.812-1.008-.814-2.68-.805-4.323-1.241 3.696-2.94 7.714-2.297 10.725 1.355 3.68 4.463 1.58 13.097-4.005 13.712-7.93.874-16.027.222-24.053.222l-.264-1.403c1.307-.423 2.613-.847 4.365-1.266"/><path fill="#E4E4E4" d="M825.242 723.133c-.208 1.304-.541 2.196-.875 3.087l-1.428-.334v-28.815l-14.888-.7.102-1.802h30.58c-1.688 1.826-1.688 1.826-13.617 2.533 0 8.474 0 17.046.126 26.03m67.538-13.911c-1.437 4.643-4.845 2.085-6.64 1.186-3.54-1.775-5.843-5.203-4.738-9.491 1.071-4.16 3.69-7.015 8.447-7.014h21.655l.237 1.68c-1.333.417-2.657 1.158-4 1.193-5.32.137-10.648.14-15.97.023-3.879-.087-7.162.76-7.611 5.2-.45 4.441 2.42 6.134 6.416 6.482.652.056 1.288.302 2.203.741"/><path fill="#E2E2E2" d="M544.19 718.22c.245-8.31.485-16.192.794-24.073.003-.076.912-.117 1.756-.217v31.873l-1.073.843-12.16-13.314 1.753-1.718c1.886 1.966 3.675 4.04 5.705 5.844.798.71 2.134.812 3.225.763"/><path fill="#ECECEC" d="M516.978 714.976v-20.778l1.495-.886 12.035 13.586-1.559 1.542-6.886-9.665-2.107 1.538c0 7.391.06 14.783-.058 22.172-.02 1.273-.8 2.535-1.23 3.802l-1.69-.432z"/><path fill="#E4E4E4" d="M691.955 726.063c-9.925.11-19.436.11-28.947.11l-.385-1.492c1.059-.506 2.11-1.435 3.177-1.452 7.941-.127 15.888-.167 23.825.046.938.025 1.831 1.745 2.33 2.788"/><path fill="#E7E7E7" d="M590.055 708.954v-14.702l1.187-.948 12.257 13.336-1.708 1.83-9.098-9.069c0 3.42 0 5.964-.345 8.856-.994.466-1.643.581-2.293.697"/><path fill="#E2E2E2" d="M669.099 693.878c8.301-.005 16.116-.005 24.839-.005-4.086 4.06-29.02 3.889-31.423.01 2.322 0 4.21 0 6.584-.005"/><path fill="#797979" d="M617.831 718.38c.164-2.088 1.165-4.63.328-6.175-2.158-3.984-1.756-12.3 2.136-15.926 0 8.08 0 15.552-.49 23.321-.985-.208-1.48-.714-1.974-1.22"/><path fill="#FEFEFE" d="M667.102 708.616c8.933.012 17.379.012 25.825.012l-.007 2.006h-29.865l-.307-.985c1.289-.349 2.578-.697 4.354-1.033"/><path fill="#797979" d="M589.94 709.413c.765-.575 1.414-.69 2.386-.726.79 5.788 1.364 11.506.262 17.093l-2.27-.017c-.165-5.297-.33-10.594-.378-16.35"/><path fill="#E2E2E2" d="M617.524 718.438c.801.448 1.296.954 2.064 1.506.107 1.11-.057 2.173-.228 3.236-.046.283-.112.563-.17.844l.366-.49c-.26-.147-.601-.485-.768-.414-5.652 2.417-5.314-2.382-6.807-5.108 1.944.18 3.59.332 5.543.426M381.369 587.623c-3.547-4.21-7.026-8.14-4.605-14.7 3.25 2.68 6.614 4.948 9.349 7.816a216 216 0 0 1 13.575 15.685c1.014 1.294.553 3.745.778 5.727-8.521-.485-11.863-6.596-16.12-11.516-.845-.978-1.785-1.875-2.977-3.012"/><path fill="#020202" d="M446.988 705.114c0-8.357 0-8.35 7.905-8.308 4.164.022 8.33.094 12.492-.011 2.76-.07 3.945 1.138 3.932 3.84-.029 6.158-.022 12.317.03 18.475.024 2.916-1.231 4.194-4.232 4.115-5.16-.135-10.33-.147-15.49.001-3.368.096-4.881-1.073-4.693-4.638.23-4.319.056-8.659.056-13.474"/></svg>