<svg version="1.1" id="Layer_1" xmlns="http://www.w3.org/2000/svg" xmlns:xlink="http://www.w3.org/1999/xlink" x="0px" y="0px"
	 width="100%" viewBox="0 0 1280 768" enable-background="new 0 0 1280 768" xml:space="preserve">
<path fill="#000000" opacity="1.000000" stroke="none" 
	d="
M935.000000,769.000000 
	C623.371277,769.000000 312.242554,769.000000 1.056921,769.000000 
	C1.056921,513.069153 1.056921,257.138336 1.056921,1.103750 
	C427.545441,1.103750 854.090881,1.103750 1280.818115,1.103750 
	C1280.818115,256.999878 1280.818115,512.999939 1280.818115,769.000000 
	C1165.804810,769.000000 1050.652466,769.000000 935.000000,769.000000 
M617.216919,718.496582 
	C615.570862,718.344116 613.924866,718.191650 611.980713,718.011597 
	C613.474182,720.738342 613.135986,725.536865 618.788269,723.120117 
	C618.954712,723.049011 619.295898,723.386780 619.555603,723.533875 
	C619.433960,723.697266 619.312317,723.860718 619.190674,724.024170 
	C619.247681,723.742798 619.314392,723.463013 619.359924,723.179810 
	C619.530823,722.117065 619.694824,721.053284 620.295105,719.301758 
	C620.295105,711.830688 620.295105,704.359619 620.295105,696.279175 
	C616.403442,699.905396 616.000610,708.220886 618.159119,712.205444 
	C618.996216,713.750793 617.994873,716.292053 617.216919,718.496582 
M589.824341,709.871704 
	C589.988770,715.168762 590.153137,720.465759 590.317566,725.762817 
	C591.074341,725.768616 591.831177,725.774414 592.587952,725.780212 
	C593.689880,720.193054 593.116089,714.475281 592.692749,707.907654 
	C592.692749,705.364502 592.692749,702.821289 592.692749,699.401245 
	C596.240540,702.937195 599.015869,705.703247 601.791199,708.469299 
	C602.360474,707.859375 602.929749,707.249451 603.499084,706.639526 
	C599.413208,702.194397 595.327393,697.749207 591.241516,693.304077 
	C590.846191,693.619934 590.450806,693.935852 590.055481,694.251770 
	C590.055481,699.152405 590.055481,704.053101 589.824341,709.871704 
M404.976044,596.759949 
	C394.573120,585.705872 384.170166,574.651855 373.107697,562.896973 
	C373.107697,569.796143 373.044769,575.711670 373.165649,581.623474 
	C373.187439,582.689636 373.709412,583.976379 374.433777,584.761353 
	C381.067596,591.950684 387.797119,599.051636 394.838654,606.783203 
	C406.527130,619.317139 418.184174,631.880798 429.949432,644.342163 
	C431.221069,645.689087 433.068634,647.219971 434.737823,647.330933 
	C440.344055,647.703857 445.990479,647.472595 451.743225,647.472595 
	C451.743225,615.903381 451.743225,584.730286 451.743225,553.523804 
	C446.659393,553.523804 441.920959,553.523804 436.732300,553.523804 
	C436.732300,579.014160 436.732300,604.196045 436.732300,630.451721 
	C425.729248,618.885132 415.478912,608.109802 404.976044,596.759949 
M465.308838,114.499817 
	C465.300568,120.831543 464.986725,127.185013 465.435059,133.484238 
	C465.613190,135.987366 466.878998,138.994888 468.666992,140.715576 
	C502.995941,173.751846 537.501404,206.604538 571.918274,239.549606 
	C603.086792,269.385193 634.183289,299.295929 665.328430,329.155884 
	C712.227112,374.119263 759.156738,419.050385 806.013855,464.057037 
	C809.430664,467.338989 812.366821,471.121399 815.526489,474.671143 
	C816.043884,474.314575 816.561340,473.958038 817.078796,473.601471 
	C817.078796,471.679626 817.078918,469.757782 817.078796,467.835938 
	C817.076965,440.673767 817.001526,413.511200 817.157043,386.349945 
	C817.179016,382.517487 816.007874,379.908447 813.247314,377.288757 
	C787.389526,352.749908 761.646973,328.089417 735.896973,303.437164 
	C691.733704,261.156647 647.582214,218.863785 603.438354,176.563019 
	C558.692932,133.685806 513.963745,90.791641 469.219818,47.912853 
	C468.143585,46.881493 466.977203,45.944206 465.311249,44.490379 
	C465.311249,68.214905 465.311249,90.857384 465.308838,114.499817 
M533.643433,399.500214 
	C533.647583,343.834015 533.608765,288.167694 533.745605,232.501801 
	C533.755493,228.481461 532.574707,225.720016 529.698669,222.969223 
	C511.756378,205.808395 493.983459,188.470535 476.138397,171.207870 
	C472.863800,168.040100 469.516083,164.947906 465.778320,161.420944 
	C465.778320,265.406006 465.778320,368.547668 465.778320,471.658356 
	C488.585297,471.658356 510.841827,471.658356 533.643372,471.658356 
	C533.643372,447.757660 533.643372,424.128937 533.643433,399.500214 
M749.035156,243.500000 
	C749.035156,253.957672 749.035156,264.415344 749.035156,275.077362 
	C771.883972,275.077362 794.275391,275.077362 816.875854,275.077362 
	C816.875854,198.694580 816.875854,122.616440 816.875854,46.349495 
	C794.255737,46.349495 771.858826,46.349495 749.035156,46.349495 
	C749.035156,111.916618 749.035156,177.208313 749.035156,243.500000 
M702.420593,636.100037 
	C706.607361,638.398193 710.571411,641.339294 715.020447,642.880615 
	C732.287537,648.862427 749.911499,649.158936 767.379395,643.995239 
	C786.060608,638.472900 795.847290,628.179932 794.884705,607.637390 
	C794.206970,593.173279 794.754395,578.651978 794.747070,564.156189 
	C794.741516,553.242188 794.731995,553.415833 783.736328,553.160034 
	C779.869446,553.070129 778.968872,554.350891 779.005920,557.997742 
	C779.183655,575.490906 779.121521,592.986633 779.110413,610.481445 
	C779.103821,620.744141 775.260620,626.335938 765.579773,630.039734 
	C753.550171,634.642395 740.998962,634.522339 728.730774,632.301147 
	C709.262939,628.776428 705.526123,620.500977 706.040283,603.965515 
	C706.557373,587.335693 706.153992,570.677124 706.153992,553.325195 
	C702.984314,553.325195 700.170532,553.571716 697.416199,553.271973 
	C692.263794,552.711304 690.881714,554.941528 690.948425,559.872314 
	C691.191956,577.863831 691.077148,595.860535 691.037170,613.855225 
	C691.016968,622.954102 694.518005,630.257080 702.420593,636.100037 
M518.499390,567.295288 
	C528.259338,567.295288 538.019287,567.295288 547.711670,567.295288 
	C547.711670,562.385010 547.711670,558.119812 547.711670,553.606201 
	C520.378906,553.606201 493.307678,553.606201 466.079041,553.606201 
	C466.079041,576.274597 466.079041,598.500793 466.079041,620.800903 
	C471.127380,620.800903 475.884125,620.800903 481.163147,620.800903 
	C481.163147,615.721008 481.163147,610.834595 481.163147,605.606995 
	C503.631958,605.606995 525.575500,605.606995 547.758789,605.606995 
	C547.758789,600.847900 547.758789,596.450989 547.758789,591.657104 
	C525.459167,591.657104 503.381165,591.657104 481.267761,591.657104 
	C481.267761,583.331665 481.267761,575.405273 481.267761,567.295288 
	C493.518005,567.295288 505.508667,567.295288 518.499390,567.295288 
M925.178650,630.083069 
	C926.762695,629.127930 928.346741,628.172791 930.304321,626.992432 
	C931.078552,628.125916 932.145081,629.687256 933.401611,631.526794 
	C938.583923,621.991577 938.812988,578.885376 934.292358,556.571472 
	C930.878418,556.571472 927.248962,557.198486 923.942810,556.431763 
	C918.290710,555.120789 914.470154,557.884277 911.390076,561.522644 
	C904.524536,569.632629 898.141052,578.149902 891.533447,586.479309 
	C885.294495,594.344177 879.020264,602.181091 872.616760,610.211914 
	C860.355042,594.815125 848.460327,579.879211 835.931091,564.146484 
	C835.931091,569.056946 836.241821,572.732910 835.862427,576.336243 
	C835.197266,582.654114 837.043396,587.629517 841.217834,592.595093 
	C851.895325,605.296082 861.963745,618.509155 872.486694,631.783508 
	C888.783997,611.367126 904.882629,591.199646 921.785034,570.025208 
	C921.785034,588.215393 921.853455,604.697632 921.727417,621.178284 
	C921.702148,624.481689 922.137085,627.308167 925.178650,630.083069 
M601.633118,571.866638 
	C596.607910,566.770081 591.625244,561.630310 586.527222,556.607605 
	C585.267456,555.366516 583.679443,553.700317 582.162354,553.612610 
	C576.173462,553.266541 570.152832,553.470642 564.143982,553.470642 
	C563.907227,553.869385 563.670471,554.268127 563.433716,554.666931 
	C578.679810,569.660950 593.925964,584.655029 609.490601,599.962280 
	C593.643188,616.058655 578.092468,631.853699 562.732544,647.454956 
	C567.809631,647.454956 573.229553,647.667664 578.616821,647.341492 
	C580.543945,647.224792 582.846558,646.264465 584.209473,644.913879 
	C614.010315,615.382751 643.705750,585.745239 673.397644,556.104370 
	C674.090393,555.412781 674.509827,554.447510 675.283936,553.261963 
	C670.460144,553.261963 666.296936,553.518738 662.180054,553.191895 
	C657.818176,552.845520 654.750305,554.356262 651.683655,557.492432 
	C641.104614,568.311035 630.202576,578.813904 619.434937,589.425781 
	C613.728394,583.792969 607.935974,578.075439 601.633118,571.866638 
M754.815613,292.132477 
	C753.259521,292.132477 751.703491,292.132477 748.723633,292.132477 
	C772.015015,314.343933 794.253174,335.551025 816.831848,357.082794 
	C816.831848,335.116974 816.831848,313.872345 816.831848,292.136353 
	C796.288513,292.136353 776.018860,292.136353 754.815613,292.132477 
M345.136810,577.500000 
	C345.136810,600.612488 345.136810,623.724915 345.136810,647.190552 
	C350.522034,647.190552 355.592285,647.190552 360.756958,647.190552 
	C360.756958,615.924988 360.756958,584.873657 360.756958,553.653687 
	C355.468201,553.653687 350.440491,553.653687 345.136810,553.653687 
	C345.136810,561.560059 345.136810,569.030029 345.136810,577.500000 
M823.680786,610.500183 
	C823.677124,595.858582 823.675842,581.216919 823.669189,566.575317 
	C823.662598,551.966919 823.660217,551.966187 808.789734,553.418335 
	C808.651917,553.431763 808.530884,553.617371 808.297974,553.807556 
	C808.297974,584.871704 808.297974,616.019714 808.297974,647.162476 
	C813.563965,647.162476 818.483154,647.162476 823.680725,647.162476 
	C823.680725,635.055359 823.680725,623.277771 823.680786,610.500183 
M505.499634,647.441772 
	C519.583984,647.441772 533.668335,647.441772 547.655151,647.441772 
	C547.655151,642.335815 547.655151,637.914490 547.655151,633.423584 
	C520.293945,633.423584 493.249420,633.423584 465.931213,633.423584 
	C465.931213,638.143677 465.931213,642.563965 465.931213,647.442200 
	C478.936981,647.442200 491.718292,647.442200 505.499634,647.441772 
M630.608398,620.852722 
	C638.667603,628.761475 646.696838,636.701233 654.817505,644.546387 
	C656.072021,645.758362 657.702393,647.293030 659.233337,647.380615 
	C665.056519,647.713928 670.910217,647.514954 676.126526,647.514954 
	C663.726135,634.802490 651.193787,621.954834 637.991211,608.420044 
	C635.410400,611.341858 632.876892,613.996155 630.639954,616.880432 
	C630.013611,617.687988 630.261169,619.173279 630.608398,620.852722 
M447.356842,694.225525 
	C446.226593,696.303955 444.265564,698.326660 444.121765,700.471252 
	C443.689606,706.916199 443.872467,713.410583 444.001221,719.882019 
	C444.078125,723.747375 446.074066,726.090942 450.157349,726.125061 
	C456.131134,726.175049 462.106171,726.217957 468.079437,726.151733 
	C472.050720,726.107666 474.195770,724.049377 474.203766,719.987000 
	C474.216797,713.347229 474.235321,706.707397 474.207611,700.067810 
	C474.189484,695.730774 471.817230,693.831116 467.625671,693.869080 
	C461.153412,693.927734 454.680908,693.963013 447.356842,694.225525 
M738.102722,716.255737 
	C738.102478,711.428345 738.200500,706.598328 738.069824,701.774475 
	C737.971008,698.127319 739.588989,696.707642 743.165283,696.787048 
	C749.321533,696.923767 755.484192,696.912354 761.640564,696.785950 
	C763.015930,696.757690 764.376343,695.996826 765.743652,695.573303 
	C765.620056,695.012268 765.496460,694.451294 765.372864,693.890259 
	C757.623718,693.890259 749.874268,693.936035 742.125671,693.872986 
	C737.496887,693.835327 735.444031,696.346436 735.360474,700.636841 
	C735.240662,706.793213 735.250916,712.954895 735.352966,719.111877 
	C735.433838,723.990295 737.468506,726.070801 742.336121,726.169434 
	C749.323914,726.311157 756.315979,726.288208 763.305481,726.236267 
	C764.111023,726.230286 764.911743,725.591064 765.714722,725.245483 
	C764.337524,723.776917 762.945312,723.215088 761.544678,723.193298 
	C755.720276,723.102600 749.884949,722.987427 744.070007,723.247437 
	C739.555237,723.449219 737.445618,721.824463 738.102722,716.255737 
M374.019562,717.270508 
	C374.019135,712.448181 374.280701,707.607422 373.942383,702.808960 
	C373.622650,698.273010 375.122894,696.459290 379.812378,696.720520 
	C385.614655,697.043762 391.449890,696.884033 397.266815,696.752014 
	C398.614807,696.721497 399.946198,695.958496 401.285217,695.532532 
	C401.159180,695.006348 401.033142,694.480103 400.907104,693.953918 
	C392.627014,693.953918 384.335205,693.695923 376.072235,694.071960 
	C372.404999,694.238892 370.966370,697.273438 370.976685,700.846985 
	C370.994415,706.999512 370.970673,713.152161 370.992615,719.304688 
	C371.008362,723.716980 373.214050,726.112244 377.663544,726.160339 
	C384.812744,726.237732 391.963135,726.238647 399.112640,726.202087 
	C399.794098,726.198608 400.473083,725.702087 401.153229,725.434448 
	C399.944092,723.890259 398.615570,723.229187 397.276672,723.207520 
	C391.126099,723.108337 384.969879,723.083435 378.821167,723.242493 
	C375.165771,723.337097 373.529266,721.889099 374.019562,717.270508 
M885.100586,723.180847 
	C883.794128,723.604187 882.487671,724.027527 881.181213,724.450867 
	C881.269226,724.918579 881.357239,725.386292 881.445251,725.854004 
	C889.471008,725.854004 897.568481,726.505554 905.498047,725.632263 
	C911.082764,725.017151 913.183533,716.382751 909.503479,711.920471 
	C906.491577,708.268372 902.474304,707.625122 898.778015,710.565002 
	C900.421753,711.001038 902.093323,710.992432 903.101440,711.805969 
	C905.203369,713.502075 908.311951,715.493103 908.530823,717.617859 
	C908.856323,720.779175 906.352722,723.265808 902.416748,723.197693 
	C896.942932,723.102966 891.466064,723.183655 885.100586,723.180847 
M825.116272,722.718933 
	C825.116272,714.147522 825.116272,705.576111 825.116272,697.102234 
	C837.044922,696.395081 837.044922,696.395081 838.733948,694.569336 
	C828.379150,694.569336 818.265991,694.569336 808.152771,694.569336 
	C808.118896,695.169861 808.085083,695.770386 808.051208,696.370911 
	C812.836853,696.596069 817.622498,696.821228 822.939270,697.071411 
	C822.939270,706.802429 822.939270,716.344421 822.939270,725.886414 
	C823.415222,725.997742 823.891174,726.109009 824.367065,726.220276 
	C824.700623,725.328918 825.034180,724.437500 825.116272,722.718933 
M892.507324,708.940186 
	C891.863892,708.781921 891.227966,708.536377 890.575745,708.479675 
	C886.580750,708.132324 883.710327,706.439331 884.159729,701.998413 
	C884.609253,697.557495 887.892456,696.711365 891.771423,696.797546 
	C897.092651,696.915833 902.420532,696.912170 907.740784,696.774780 
	C909.083557,696.740051 910.408203,695.998657 911.741150,695.582031 
	C911.662231,695.022095 911.583313,694.462219 911.504333,693.902283 
	C904.285950,693.902283 897.067505,693.903320 889.849121,693.901978 
	C885.092712,693.901062 882.473083,696.755188 881.401550,700.915649 
	C880.296997,705.204285 882.600830,708.632019 886.140259,710.406555 
	C887.934509,711.306030 891.342590,713.863953 892.507324,708.940186 
M544.189575,718.648254 
	C543.098694,718.269714 541.762512,718.167175 540.964966,717.458496 
	C538.934998,715.654785 537.145752,713.580200 535.260193,711.614014 
	C534.676025,712.186584 534.091858,712.759216 533.507690,713.331787 
	C537.560913,717.769836 541.614136,722.207825 545.667358,726.645813 
	C546.025024,726.364990 546.382751,726.084106 546.740479,725.803284 
	C546.740479,715.212280 546.740479,704.621338 546.740479,693.929565 
	C545.895752,694.029724 544.986877,694.070801 544.983887,694.147278 
	C544.675476,702.027649 544.435303,709.910706 544.189575,718.648254 
M516.978516,715.471863 
	C516.978516,718.932983 516.978516,722.394104 516.978516,725.855286 
	C517.541565,725.999146 518.104553,726.143066 518.667603,726.286926 
	C519.097107,725.019836 519.877747,723.758423 519.898193,722.484802 
	C520.016602,715.095886 519.956055,707.704102 519.956055,700.313293 
	C520.658386,699.800415 521.360718,699.287598 522.063049,698.774719 
	C524.358459,701.996521 526.653870,705.218323 528.949280,708.440125 
	C529.468994,707.926208 529.988708,707.412354 530.508362,706.898499 
	C526.496521,702.369568 522.484619,697.840698 518.472778,693.311768 
	C517.974548,693.607239 517.476257,693.902710 516.978027,694.198181 
	C516.978027,700.958557 516.978027,707.718933 516.978516,715.471863 
M692.369629,725.953613 
	C691.455994,725.019592 690.563416,723.300171 689.625427,723.274963 
	C681.687866,723.062073 673.741028,723.101562 665.799683,723.229004 
	C664.733337,723.246094 663.681641,724.174561 662.623169,724.681091 
	C662.751404,725.178528 662.879700,725.675964 663.007996,726.173401 
	C672.518860,726.173401 682.029785,726.173401 692.369629,725.953613 
M668.611572,693.883606 
	C666.724365,693.883606 664.837097,693.883606 662.514587,693.883606 
	C664.918030,697.761536 689.852478,697.932190 693.937805,693.872864 
	C685.214905,693.872864 677.400208,693.872864 668.611572,693.883606 
M666.614563,708.602783 
	C665.325806,708.951660 664.037048,709.300476 662.748230,709.649292 
	C662.850647,709.977417 662.953064,710.305481 663.055481,710.633606 
	C673.010254,710.633606 682.965088,710.633606 692.919861,710.633606 
	C692.922302,709.965210 692.924683,709.296875 692.927124,708.628479 
	C684.481018,708.628479 676.034973,708.628479 666.614563,708.602783 
z"/>
<path fill="#FEFEFE" opacity="1.000000" stroke="none" 
	d="
M465.310059,113.999832 
	C465.311249,90.857384 465.311249,68.214905 465.311249,44.490379 
	C466.977203,45.944206 468.143585,46.881493 469.219818,47.912853 
	C513.963745,90.791641 558.692932,133.685806 603.438354,176.563019 
	C647.582214,218.863785 691.733704,261.156647 735.896973,303.437164 
	C761.646973,328.089417 787.389526,352.749908 813.247314,377.288757 
	C816.007874,379.908447 817.179016,382.517487 817.157043,386.349945 
	C817.001526,413.511200 817.076965,440.673767 817.078796,467.835938 
	C817.078918,469.757782 817.078796,471.679626 817.078796,473.601471 
	C816.561340,473.958038 816.043884,474.314575 815.526489,474.671143 
	C812.366821,471.121399 809.430664,467.338989 806.013855,464.057037 
	C759.156738,419.050385 712.227112,374.119263 665.328430,329.155884 
	C634.183289,299.295929 603.086792,269.385193 571.918274,239.549606 
	C537.501404,206.604538 502.995941,173.751846 468.666992,140.715576 
	C466.878998,138.994888 465.613190,135.987366 465.435059,133.484238 
	C464.986725,127.185013 465.300568,120.831543 465.310059,113.999832 
z"/>
<path fill="#FCFCFC" opacity="1.000000" stroke="none" 
	d="
M533.643433,400.000244 
	C533.643372,424.128937 533.643372,447.757660 533.643372,471.658356 
	C510.841827,471.658356 488.585297,471.658356 465.778320,471.658356 
	C465.778320,368.547668 465.778320,265.406006 465.778320,161.420944 
	C469.516083,164.947906 472.863800,168.040100 476.138397,171.207870 
	C493.983459,188.470535 511.756378,205.808395 529.698669,222.969223 
	C532.574707,225.720016 533.755493,228.481461 533.745605,232.501801 
	C533.608765,288.167694 533.647583,343.834015 533.643433,400.000244 
z"/>
<path fill="#FFFFFF" opacity="1.000000" stroke="none" 
	d="
M749.035156,243.000000 
	C749.035156,177.208313 749.035156,111.916618 749.035156,46.349495 
	C771.858826,46.349495 794.255737,46.349495 816.875854,46.349495 
	C816.875854,122.616440 816.875854,198.694580 816.875854,275.077362 
	C794.275391,275.077362 771.883972,275.077362 749.035156,275.077362 
	C749.035156,264.415344 749.035156,253.957672 749.035156,243.000000 
z"/>
<path fill="#FAFAF9" opacity="1.000000" stroke="none" 
	d="
M702.114258,635.912476 
	C694.518005,630.257080 691.016968,622.954102 691.037170,613.855225 
	C691.077148,595.860535 691.191956,577.863831 690.948425,559.872314 
	C690.881714,554.941528 692.263794,552.711304 697.416199,553.271973 
	C700.170532,553.571716 702.984314,553.325195 706.153992,553.325195 
	C706.153992,570.677124 706.557373,587.335693 706.040283,603.965515 
	C705.526123,620.500977 709.262939,628.776428 728.730774,632.301147 
	C740.998962,634.522339 753.550171,634.642395 765.579773,630.039734 
	C775.260620,626.335938 779.103821,620.744141 779.110413,610.481445 
	C779.121521,592.986633 779.183655,575.490906 779.005920,557.997742 
	C778.968872,554.350891 779.869446,553.070129 783.736328,553.160034 
	C794.731995,553.415833 794.741516,553.242188 794.747070,564.156189 
	C794.754395,578.651978 794.206970,593.173279 794.884705,607.637390 
	C795.847290,628.179932 786.060608,638.472900 767.379395,643.995239 
	C749.911499,649.158936 732.287537,648.862427 715.020447,642.880615 
	C710.571411,641.339294 706.607361,638.398193 702.114258,635.912476 
z"/>
<path fill="#FBFBFB" opacity="1.000000" stroke="none" 
	d="
M517.999390,567.295288 
	C505.508667,567.295288 493.518005,567.295288 481.267761,567.295288 
	C481.267761,575.405273 481.267761,583.331665 481.267761,591.657104 
	C503.381165,591.657104 525.459167,591.657104 547.758789,591.657104 
	C547.758789,596.450989 547.758789,600.847900 547.758789,605.606995 
	C525.575500,605.606995 503.631958,605.606995 481.163147,605.606995 
	C481.163147,610.834595 481.163147,615.721008 481.163147,620.800903 
	C475.884125,620.800903 471.127380,620.800903 466.079041,620.800903 
	C466.079041,598.500793 466.079041,576.274597 466.079041,553.606201 
	C493.307678,553.606201 520.378906,553.606201 547.711670,553.606201 
	C547.711670,558.119812 547.711670,562.385010 547.711670,567.295288 
	C538.019287,567.295288 528.259338,567.295288 517.999390,567.295288 
z"/>
<path fill="#FCFCFB" opacity="1.000000" stroke="none" 
	d="
M925.080750,629.703979 
	C922.137085,627.308167 921.702148,624.481689 921.727417,621.178284 
	C921.853455,604.697632 921.785034,588.215393 921.785034,570.025208 
	C904.882629,591.199646 888.783997,611.367126 872.486694,631.783508 
	C861.963745,618.509155 851.895325,605.296082 841.217834,592.595093 
	C837.043396,587.629517 835.197266,582.654114 835.862427,576.336243 
	C836.241821,572.732910 835.931091,569.056946 835.931091,564.146484 
	C848.460327,579.879211 860.355042,594.815125 872.616760,610.211914 
	C879.020264,602.181091 885.294495,594.344177 891.533447,586.479309 
	C898.141052,578.149902 904.524536,569.632629 911.390076,561.522644 
	C914.470154,557.884277 918.290710,555.120789 923.942810,556.431763 
	C927.248962,557.198486 930.878418,556.571472 934.292358,556.571472 
	C938.812988,578.885376 938.583923,621.991577 933.401611,631.526794 
	C932.145081,629.687256 931.078552,628.125916 930.304321,626.992432 
	C928.346741,628.172791 926.762695,629.127930 925.080750,629.703979 
z"/>
<path fill="#FAFAF9" opacity="1.000000" stroke="none" 
	d="
M601.888306,572.112244 
	C607.935974,578.075439 613.728394,583.792969 619.434937,589.425781 
	C630.202576,578.813904 641.104614,568.311035 651.683655,557.492432 
	C654.750305,554.356262 657.818176,552.845520 662.180054,553.191895 
	C666.296936,553.518738 670.460144,553.261963 675.283936,553.261963 
	C674.509827,554.447510 674.090393,555.412781 673.397644,556.104370 
	C643.705750,585.745239 614.010315,615.382751 584.209473,644.913879 
	C582.846558,646.264465 580.543945,647.224792 578.616821,647.341492 
	C573.229553,647.667664 567.809631,647.454956 562.732544,647.454956 
	C578.092468,631.853699 593.643188,616.058655 609.490601,599.962280 
	C593.925964,584.655029 578.679810,569.660950 563.433716,554.666931 
	C563.670471,554.268127 563.907227,553.869385 564.143982,553.470642 
	C570.152832,553.470642 576.173462,553.266541 582.162354,553.612610 
	C583.679443,553.700317 585.267456,555.366516 586.527222,556.607605 
	C591.625244,561.630310 596.607910,566.770081 601.888306,572.112244 
z"/>
<path fill="#FCFCFC" opacity="1.000000" stroke="none" 
	d="
M755.282349,292.134399 
	C776.018860,292.136353 796.288513,292.136353 816.831848,292.136353 
	C816.831848,313.872345 816.831848,335.116974 816.831848,357.082794 
	C794.253174,335.551025 772.015015,314.343933 748.723633,292.132477 
	C751.703491,292.132477 753.259521,292.132477 755.282349,292.134399 
z"/>
<path fill="#FDFDFD" opacity="1.000000" stroke="none" 
	d="
M405.228546,597.334473 
	C415.478912,608.109802 425.729248,618.885132 436.732300,630.451721 
	C436.732300,604.196045 436.732300,579.014160 436.732300,553.523804 
	C441.920959,553.523804 446.659393,553.523804 451.743225,553.523804 
	C451.743225,584.730286 451.743225,615.903381 451.743225,647.472595 
	C445.990479,647.472595 440.344055,647.703857 434.737823,647.330933 
	C433.068634,647.219971 431.221069,645.689087 429.949432,644.342163 
	C418.184174,631.880798 406.527130,619.317139 395.098846,606.435913 
	C397.038574,606.583008 398.704254,607.410217 400.401459,607.480957 
	C402.202301,607.555969 404.319458,607.344177 405.732758,606.405701 
	C406.464752,605.919617 406.103149,603.581421 405.998840,602.096619 
	C405.886597,600.499084 405.497070,598.921021 405.228546,597.334473 
z"/>
<path fill="#FAFAF9" opacity="1.000000" stroke="none" 
	d="
M345.136810,577.000000 
	C345.136810,569.030029 345.136810,561.560059 345.136810,553.653687 
	C350.440491,553.653687 355.468201,553.653687 360.756958,553.653687 
	C360.756958,584.873657 360.756958,615.924988 360.756958,647.190552 
	C355.592285,647.190552 350.522034,647.190552 345.136810,647.190552 
	C345.136810,623.724915 345.136810,600.612488 345.136810,577.000000 
z"/>
<path fill="#F8F8F8" opacity="1.000000" stroke="none" 
	d="
M823.680786,611.000244 
	C823.680725,623.277771 823.680725,635.055359 823.680725,647.162476 
	C818.483154,647.162476 813.563965,647.162476 808.297974,647.162476 
	C808.297974,616.019714 808.297974,584.871704 808.297974,553.807556 
	C808.530884,553.617371 808.651917,553.431763 808.789734,553.418335 
	C823.660217,551.966187 823.662598,551.966919 823.669189,566.575317 
	C823.675842,581.216919 823.677124,595.858582 823.680786,611.000244 
z"/>
<path fill="#F9F9F8" opacity="1.000000" stroke="none" 
	d="
M504.999603,647.442017 
	C491.718292,647.442200 478.936981,647.442200 465.931213,647.442200 
	C465.931213,642.563965 465.931213,638.143677 465.931213,633.423584 
	C493.249420,633.423584 520.293945,633.423584 547.655151,633.423584 
	C547.655151,637.914490 547.655151,642.335815 547.655151,647.441772 
	C533.668335,647.441772 519.583984,647.441772 504.999603,647.442017 
z"/>
<path fill="#F9F9F8" opacity="1.000000" stroke="none" 
	d="
M630.358154,620.600220 
	C630.261169,619.173279 630.013611,617.687988 630.639954,616.880432 
	C632.876892,613.996155 635.410400,611.341858 637.991211,608.420044 
	C651.193787,621.954834 663.726135,634.802490 676.126526,647.514954 
	C670.910217,647.514954 665.056519,647.713928 659.233337,647.380615 
	C657.702393,647.293030 656.072021,645.758362 654.817505,644.546387 
	C646.696838,636.701233 638.667603,628.761475 630.358154,620.600220 
z"/>
<path fill="#ECECEC" opacity="1.000000" stroke="none" 
	d="
M405.102295,597.047241 
	C405.497070,598.921021 405.886597,600.499084 405.998840,602.096619 
	C406.103149,603.581421 406.464752,605.919617 405.732758,606.405701 
	C404.319458,607.344177 402.202301,607.555969 400.401459,607.480957 
	C398.704254,607.410217 397.038574,606.583008 394.928894,606.133423 
	C387.797119,599.051636 381.067596,591.950684 374.433777,584.761353 
	C373.709412,583.976379 373.187439,582.689636 373.165649,581.623474 
	C373.044769,575.711670 373.107697,569.796143 373.107697,562.896973 
	C384.170166,574.651855 394.573120,585.705872 405.102295,597.047241 
M381.664429,587.826477 
	C382.560974,588.760437 383.500885,589.656921 384.346710,590.634705 
	C388.602692,595.554871 391.944946,601.665955 400.465942,602.150940 
	C400.241058,600.168945 400.702179,597.717590 399.687500,596.423767 
	C395.423737,590.987183 390.881226,585.741760 386.112579,580.739197 
	C383.378357,577.870911 380.014618,575.602600 376.764130,572.923950 
	C374.343201,579.482727 377.821594,583.413696 381.664429,587.826477 
z"/>
<path fill="#E7E7E7" opacity="1.000000" stroke="none" 
	d="
M447.782684,694.116821 
	C454.680908,693.963013 461.153412,693.927734 467.625671,693.869080 
	C471.817230,693.831116 474.189484,695.730774 474.207611,700.067810 
	C474.235321,706.707397 474.216797,713.347229 474.203766,719.987000 
	C474.195770,724.049377 472.050720,726.107666 468.079437,726.151733 
	C462.106171,726.217957 456.131134,726.175049 450.157349,726.125061 
	C446.074066,726.090942 444.078125,723.747375 444.001221,719.882019 
	C443.872467,713.410583 443.689606,706.916199 444.121765,700.471252 
	C444.265564,698.326660 446.226593,696.303955 447.782684,694.116821 
M446.988342,705.598267 
	C446.987762,709.929199 447.161285,714.269409 446.932495,718.588257 
	C446.743713,722.152588 448.256653,723.322327 451.625885,723.226013 
	C456.785370,723.078491 461.954712,723.089722 467.114868,723.225403 
	C470.115662,723.304199 471.370850,722.025513 471.346649,719.110046 
	C471.295471,712.951782 471.288116,706.792786 471.317108,700.634338 
	C471.329803,697.932556 470.144897,696.725403 467.385193,696.795044 
	C463.223633,696.900024 459.057220,696.828247 454.892975,696.806274 
	C446.987885,696.764587 446.987915,696.757080 446.988342,705.598267 
z"/>
<path fill="#E2E2E2" opacity="1.000000" stroke="none" 
	d="
M738.102905,716.724854 
	C737.445618,721.824463 739.555237,723.449219 744.070007,723.247437 
	C749.884949,722.987427 755.720276,723.102600 761.544678,723.193298 
	C762.945312,723.215088 764.337524,723.776917 765.714722,725.245483 
	C764.911743,725.591064 764.111023,726.230286 763.305481,726.236267 
	C756.315979,726.288208 749.323914,726.311157 742.336121,726.169434 
	C737.468506,726.070801 735.433838,723.990295 735.352966,719.111877 
	C735.250916,712.954895 735.240662,706.793213 735.360474,700.636841 
	C735.444031,696.346436 737.496887,693.835327 742.125671,693.872986 
	C749.874268,693.936035 757.623718,693.890259 765.372864,693.890259 
	C765.496460,694.451294 765.620056,695.012268 765.743652,695.573303 
	C764.376343,695.996826 763.015930,696.757690 761.640564,696.785950 
	C755.484192,696.912354 749.321533,696.923767 743.165283,696.787048 
	C739.588989,696.707642 737.971008,698.127319 738.069824,701.774475 
	C738.200500,706.598328 738.102478,711.428345 738.102905,716.724854 
z"/>
<path fill="#ECECEC" opacity="1.000000" stroke="none" 
	d="
M374.019592,717.742493 
	C373.529266,721.889099 375.165771,723.337097 378.821167,723.242493 
	C384.969879,723.083435 391.126099,723.108337 397.276672,723.207520 
	C398.615570,723.229187 399.944092,723.890259 401.153229,725.434448 
	C400.473083,725.702087 399.794098,726.198608 399.112640,726.202087 
	C391.963135,726.238647 384.812744,726.237732 377.663544,726.160339 
	C373.214050,726.112244 371.008362,723.716980 370.992615,719.304688 
	C370.970673,713.152161 370.994415,706.999512 370.976685,700.846985 
	C370.966370,697.273438 372.404999,694.238892 376.072235,694.071960 
	C384.335205,693.695923 392.627014,693.953918 400.907104,693.953918 
	C401.033142,694.480103 401.159180,695.006348 401.285217,695.532532 
	C399.946198,695.958496 398.614807,696.721497 397.266815,696.752014 
	C391.449890,696.884033 385.614655,697.043762 379.812378,696.720520 
	C375.122894,696.459290 373.622650,698.273010 373.942383,702.808960 
	C374.280701,707.607422 374.019135,712.448181 374.019592,717.742493 
z"/>
<path fill="#E7E7E7" opacity="1.000000" stroke="none" 
	d="
M885.545532,723.185059 
	C891.466064,723.183655 896.942932,723.102966 902.416748,723.197693 
	C906.352722,723.265808 908.856323,720.779175 908.530823,717.617859 
	C908.311951,715.493103 905.203369,713.502075 903.101440,711.805969 
	C902.093323,710.992432 900.421753,711.001038 898.778015,710.565002 
	C902.474304,707.625122 906.491577,708.268372 909.503479,711.920471 
	C913.183533,716.382751 911.082764,725.017151 905.498047,725.632263 
	C897.568481,726.505554 889.471008,725.854004 881.445251,725.854004 
	C881.357239,725.386292 881.269226,724.918579 881.181213,724.450867 
	C882.487671,724.027527 883.794128,723.604187 885.545532,723.185059 
z"/>
<path fill="#E4E4E4" opacity="1.000000" stroke="none" 
	d="
M825.241943,723.132507 
	C825.034180,724.437500 824.700623,725.328918 824.367065,726.220276 
	C823.891174,726.109009 823.415222,725.997742 822.939270,725.886414 
	C822.939270,716.344421 822.939270,706.802429 822.939270,697.071411 
	C817.622498,696.821228 812.836853,696.596069 808.051208,696.370911 
	C808.085083,695.770386 808.118896,695.169861 808.152771,694.569336 
	C818.265991,694.569336 828.379150,694.569336 838.733948,694.569336 
	C837.044922,696.395081 837.044922,696.395081 825.116272,697.102234 
	C825.116272,705.576111 825.116272,714.147522 825.241943,723.132507 
z"/>
<path fill="#E4E4E4" opacity="1.000000" stroke="none" 
	d="
M892.779419,709.221069 
	C891.342590,713.863953 887.934509,711.306030 886.140259,710.406555 
	C882.600830,708.632019 880.296997,705.204285 881.401550,700.915649 
	C882.473083,696.755188 885.092712,693.901062 889.849121,693.901978 
	C897.067505,693.903320 904.285950,693.902283 911.504333,693.902283 
	C911.583313,694.462219 911.662231,695.022095 911.741150,695.582031 
	C910.408203,695.998657 909.083557,696.740051 907.740784,696.774780 
	C902.420532,696.912170 897.092651,696.915833 891.771423,696.797546 
	C887.892456,696.711365 884.609253,697.557495 884.159729,701.998413 
	C883.710327,706.439331 886.580750,708.132324 890.575745,708.479675 
	C891.227966,708.536377 891.863892,708.781921 892.779419,709.221069 
z"/>
<path fill="#E2E2E2" opacity="1.000000" stroke="none" 
	d="
M544.190308,718.220947 
	C544.435303,709.910706 544.675476,702.027649 544.983887,694.147278 
	C544.986877,694.070801 545.895752,694.029724 546.740479,693.929565 
	C546.740479,704.621338 546.740479,715.212280 546.740479,725.803284 
	C546.382751,726.084106 546.025024,726.364990 545.667358,726.645813 
	C541.614136,722.207825 537.560913,717.769836 533.507690,713.331787 
	C534.091858,712.759216 534.676025,712.186584 535.260193,711.614014 
	C537.145752,713.580200 538.934998,715.654785 540.964966,717.458496 
	C541.762512,718.167175 543.098694,718.269714 544.190308,718.220947 
z"/>
<path fill="#ECECEC" opacity="1.000000" stroke="none" 
	d="
M516.978271,714.975586 
	C516.978027,707.718933 516.978027,700.958557 516.978027,694.198181 
	C517.476257,693.902710 517.974548,693.607239 518.472778,693.311768 
	C522.484619,697.840698 526.496521,702.369568 530.508362,706.898499 
	C529.988708,707.412354 529.468994,707.926208 528.949280,708.440125 
	C526.653870,705.218323 524.358459,701.996521 522.063049,698.774719 
	C521.360718,699.287598 520.658386,699.800415 519.956055,700.313293 
	C519.956055,707.704102 520.016602,715.095886 519.898193,722.484802 
	C519.877747,723.758423 519.097107,725.019836 518.667603,726.286926 
	C518.104553,726.143066 517.541565,725.999146 516.978516,725.855286 
	C516.978516,722.394104 516.978516,718.932983 516.978271,714.975586 
z"/>
<path fill="#E4E4E4" opacity="1.000000" stroke="none" 
	d="
M691.955139,726.063477 
	C682.029785,726.173401 672.518860,726.173401 663.007996,726.173401 
	C662.879700,725.675964 662.751404,725.178528 662.623169,724.681091 
	C663.681641,724.174561 664.733337,723.246094 665.799683,723.229004 
	C673.741028,723.101562 681.687866,723.062073 689.625427,723.274963 
	C690.563416,723.300171 691.455994,725.019592 691.955139,726.063477 
z"/>
<path fill="#E7E7E7" opacity="1.000000" stroke="none" 
	d="
M590.055481,708.953735 
	C590.055481,704.053101 590.055481,699.152405 590.055481,694.251770 
	C590.450806,693.935852 590.846191,693.619934 591.241516,693.304077 
	C595.327393,697.749207 599.413208,702.194397 603.499084,706.639526 
	C602.929749,707.249451 602.360474,707.859375 601.791199,708.469299 
	C599.015869,705.703247 596.240540,702.937195 592.692749,699.401245 
	C592.692749,702.821289 592.692749,705.364502 592.347778,708.257446 
	C591.353760,708.722717 590.704590,708.838257 590.055481,708.953735 
z"/>
<path fill="#E2E2E2" opacity="1.000000" stroke="none" 
	d="
M669.098511,693.878235 
	C677.400208,693.872864 685.214905,693.872864 693.937805,693.872864 
	C689.852478,697.932190 664.918030,697.761536 662.514587,693.883606 
	C664.837097,693.883606 666.724365,693.883606 669.098511,693.878235 
z"/>
<path fill="#797979" opacity="1.000000" stroke="none" 
	d="
M617.831116,718.379578 
	C617.994873,716.292053 618.996216,713.750793 618.159119,712.205444 
	C616.000610,708.220886 616.403442,699.905396 620.295105,696.279175 
	C620.295105,704.359619 620.295105,711.830688 619.804688,719.600098 
	C618.819824,719.392151 618.325439,718.885864 617.831116,718.379578 
z"/>
<path fill="#FEFEFE" opacity="1.000000" stroke="none" 
	d="
M667.101685,708.615601 
	C676.034973,708.628479 684.481018,708.628479 692.927124,708.628479 
	C692.924683,709.296875 692.922302,709.965210 692.919861,710.633606 
	C682.965088,710.633606 673.010254,710.633606 663.055481,710.633606 
	C662.953064,710.305481 662.850647,709.977417 662.748230,709.649292 
	C664.037048,709.300476 665.325806,708.951660 667.101685,708.615601 
z"/>
<path fill="#797979" opacity="1.000000" stroke="none" 
	d="
M589.939941,709.412720 
	C590.704590,708.838257 591.353760,708.722717 592.325684,708.686523 
	C593.116089,714.475281 593.689880,720.193054 592.587952,725.780212 
	C591.831177,725.774414 591.074341,725.768616 590.317566,725.762817 
	C590.153137,720.465759 589.988770,715.168762 589.939941,709.412720 
z"/>
<path fill="#E2E2E2" opacity="1.000000" stroke="none" 
	d="
M617.524048,718.438110 
	C618.325439,718.885864 618.819824,719.392151 619.587769,719.944092 
	C619.694824,721.053284 619.530823,722.117065 619.359924,723.179810 
	C619.314392,723.463013 619.247681,723.742798 619.190674,724.024170 
	C619.312317,723.860718 619.433960,723.697266 619.555603,723.533875 
	C619.295898,723.386780 618.954712,723.049011 618.788269,723.120117 
	C613.135986,725.536865 613.474182,720.738342 611.980713,718.011597 
	C613.924866,718.191650 615.570862,718.344116 617.524048,718.438110 
z"/>
<path fill="#E2E2E2" opacity="1.000000" stroke="none" 
	d="
M381.368591,587.623413 
	C377.821594,583.413696 374.343201,579.482727 376.764130,572.923950 
	C380.014618,575.602600 383.378357,577.870911 386.112579,580.739197 
	C390.881226,585.741760 395.423737,590.987183 399.687500,596.423767 
	C400.702179,597.717590 400.241058,600.168945 400.465942,602.150940 
	C391.944946,601.665955 388.602692,595.554871 384.346710,590.634705 
	C383.500885,589.656921 382.560974,588.760437 381.368591,587.623413 
z"/>
<path fill="#020202" opacity="1.000000" stroke="none" 
	d="
M446.988373,705.113525 
	C446.987915,696.757080 446.987885,696.764587 454.892975,696.806274 
	C459.057220,696.828247 463.223633,696.900024 467.385193,696.795044 
	C470.144897,696.725403 471.329803,697.932556 471.317108,700.634338 
	C471.288116,706.792786 471.295471,712.951782 471.346649,719.110046 
	C471.370850,722.025513 470.115662,723.304199 467.114868,723.225403 
	C461.954712,723.089722 456.785370,723.078491 451.625885,723.226013 
	C448.256653,723.322327 446.743713,722.152588 446.932495,718.588257 
	C447.161285,714.269409 446.987762,709.929199 446.988373,705.113525 
z"/>
</svg>